
<svg xmlns="http://www.w3.org/2000/svg" width="1em" height="1em" viewBox="0 0 24 24">
	<g fill="none">
		<path d="m12.593 23.258l-.011.002l-.071.035l-.02.004l-.014-.004l-.071-.035q-.016-.005-.024.005l-.004.01l-.017.428l.005.02l.01.013l.104.074l.015.004l.012-.004l.104-.074l.012-.016l.004-.017l-.017-.427q-.004-.016-.017-.018m.265-.113l-.013.002l-.185.093l-.01.01l-.003.011l.018.43l.005.012l.008.007l.201.093q.019.005.029-.008l.004-.014l-.034-.614q-.005-.018-.02-.022m-.715.002a.02.02 0 0 0-.027.006l-.006.014l-.034.614q.001.018.017.024l.015-.002l.201-.093l.01-.008l.004-.011l.017-.43l-.003-.012l-.01-.01z" />
		<path fill="currentColor" d="M20.447 6.106a1 1 0 0 1 .447 1.341c-.353.707-1 1.326-1.652 1.76c-.291.194-.62.376-.966.517c.29.71.499 1.475.616 2.276H21a1 1 0 1 1 0 2h-2.012a10 10 0 0 1-.74 3.327c.572.33.963.86 1.209 1.35A5.5 5.5 0 0 1 20 21a1 1 0 0 1-1.993.117L18 21c0-.374-.101-.966-.332-1.428c-.13-.26-.26-.409-.385-.489C16.03 20.844 14.177 22 12 22s-4.03-1.156-5.283-2.917c-.126.08-.255.23-.385.49A3.5 3.5 0 0 0 6 21a1 1 0 1 1-2 0a5.5 5.5 0 0 1 .543-2.322c.246-.492.637-1.02 1.209-1.35A10 10 0 0 1 5.012 14H3a1 1 0 1 1 0-2h2.108a9.8 9.8 0 0 1 .616-2.276a5.5 5.5 0 0 1-.966-.517c-.651-.434-1.3-1.053-1.652-1.76a1 1 0 0 1 1.73-.996l.058.102c.147.293.5.674.973.99C6.353 7.867 6.781 8 7 8h10c.219 0 .647-.133 1.133-.457c.415-.277.736-.603.908-.876l.065-.114a1 1 0 0 1 1.341-.447M16.208 10H7.792C7.294 11.004 7 12.202 7 13.5c0 3.309 1.837 5.773 4 6.364V13a1 1 0 1 1 2 0v6.864c2.163-.591 4-3.055 4-6.364c0-1.298-.294-2.496-.792-3.5M12 3a5 5 0 0 1 4.33 2.5L17.2 7H6.8l.869-1.5A5 5 0 0 1 12 3" />
	</g>
</svg>