<svg width="44" height="44" viewBox="0 0 44 44" fill="none" xmlns="http://www.w3.org/2000/svg"><path fill-rule="evenodd" clip-rule="evenodd" d="M21.2345 1.44791C21.7396 1.34404 22.2605 1.34404 22.7655 1.44791C23.3493 1.56797 23.8711 1.86022 24.2859 2.09257L24.2859 2.09258L24.399 2.15575L38.4585 9.96657C38.4742 9.97533 38.4902 9.98417 38.5063 9.99308C38.5295 10.0059 38.553 10.0188 38.5769 10.032L38.5784 10.0328C39.0176 10.2747 39.5697 10.5788 39.9937 11.0389C40.3603 11.4368 40.6378 11.9083 40.8075 12.4219C41.0038 13.016 41.0015 13.6464 40.9996 14.1477C40.9995 14.1946 40.9993 14.2403 40.9993 14.2847V29.7067C40.9993 29.7256 40.9993 29.7448 40.9994 29.7642C40.9994 29.7903 40.9995 29.8168 40.9996 29.8437C41.0015 30.3451 41.0038 30.9754 40.8075 31.5695C40.6378 32.0832 40.3603 32.5547 39.9937 32.9525C39.5697 33.4126 39.0176 33.7167 38.5784 33.9586L38.5107 33.9959L38.4585 34.0249L24.399 41.8357L24.2859 41.8989C23.8711 42.1312 23.3493 42.4235 22.7655 42.5435C22.2605 42.6474 21.7396 42.6474 21.2345 42.5435C20.6507 42.4235 20.1289 42.1312 19.7141 41.8989L19.601 41.8357L5.54153 34.0249C5.50298 34.0034 5.46327 33.9816 5.42259 33.9592L5.42157 33.9586C4.98244 33.7167 4.43029 33.4126 4.00627 32.9525C3.63968 32.5547 3.36225 32.0832 3.19254 31.5695C2.99624 30.9754 2.99854 30.3451 3.00036 29.8437C3.00053 29.7969 3.0007 29.7512 3.0007 29.7067V14.2848C3.0007 14.2403 3.00053 14.1946 3.00036 14.1477C2.99854 13.6464 2.99624 13.016 3.19254 12.4219C3.36225 11.9083 3.63967 11.4368 4.00627 11.039C4.43029 10.5788 4.98243 10.2747 5.42157 10.0328C5.46261 10.0102 5.50266 9.98817 5.54153 9.96658L19.601 2.15575L19.7141 2.09259C20.1289 1.86024 20.6507 1.56797 21.2345 1.44791ZM21.9909 5.18377C21.8813 5.23665 21.7343 5.31747 21.4464 5.47743L8.81285 12.4961L21.9999 19.8222L35.1871 12.496L22.5536 5.47742C22.2657 5.31747 22.1187 5.23665 22.0091 5.18377L22 5.17942L21.9909 5.18377ZM20.1 23.1136L6.80056 15.725V29.7067C6.80056 30.0543 6.80135 30.2323 6.80911 30.3611L6.8098 30.372L6.81899 30.3779C6.92785 30.4473 7.08301 30.5344 7.38691 30.7032L20.1001 37.766L20.1 23.1136ZM26.3465 33.3705C25.6028 33.7808 25.3326 34.7162 25.7428 35.4598C26.1531 36.2035 27.0885 36.4737 27.8321 36.0635L36.2205 31.4358C36.9641 31.0255 37.2344 30.0901 36.8241 29.3465C36.4139 28.6028 35.4785 28.3326 34.7348 28.7428L26.3465 33.3705Z" fill="#101828"></path></svg>