
<svg xmlns="http://www.w3.org/2000/svg" width="1em" height="1em" viewBox="0 0 24 24">
	<g fill="none" fill-rule="evenodd">
		<path d="m12.593 23.258l-.011.002l-.071.035l-.02.004l-.014-.004l-.071-.035q-.016-.005-.024.005l-.004.01l-.017.428l.005.02l.01.013l.104.074l.015.004l.012-.004l.104-.074l.012-.016l.004-.017l-.017-.427q-.004-.016-.017-.018m.265-.113l-.013.002l-.185.093l-.01.01l-.003.011l.018.43l.005.012l.008.007l.201.093q.019.005.029-.008l.004-.014l-.034-.614q-.005-.018-.02-.022m-.715.002a.02.02 0 0 0-.027.006l-.006.014l-.034.614q.001.018.017.024l.015-.002l.201-.093l.01-.008l.004-.011l.017-.43l-.003-.012l-.01-.01z" />
		<path fill="currentColor" fill-rule="nonzero" d="M6.72 16.64a1 1 0 0 1 .56 1.92c-.5.146-.86.3-1.091.44c.238.143.614.303 1.136.452C8.48 19.782 10.133 20 12 20s3.52-.218 4.675-.548c.523-.149.898-.309 1.136-.452c-.23-.14-.59-.294-1.09-.44a1 1 0 0 1 .559-1.92c.668.195 1.28.445 1.75.766c.435.299.97.82.97 1.594c0 .783-.548 1.308-.99 1.607c-.478.322-1.103.573-1.786.768C15.846 21.77 14 22 12 22s-3.846-.23-5.224-.625c-.683-.195-1.308-.446-1.786-.768c-.442-.3-.99-.824-.99-1.607c0-.774.535-1.295.97-1.594c.47-.321 1.082-.571 1.75-.766M12 2a7.5 7.5 0 0 1 7.5 7.5c0 2.568-1.4 4.656-2.85 6.14a16.4 16.4 0 0 1-1.853 1.615c-.594.446-1.952 1.282-1.952 1.282a1.71 1.71 0 0 1-1.69 0a21 21 0 0 1-1.952-1.282A16 16 0 0 1 7.35 15.64C5.9 14.156 4.5 12.068 4.5 9.5A7.5 7.5 0 0 1 12 2m0 2a5.5 5.5 0 0 0-5.5 5.5c0 1.816.996 3.428 2.28 4.74c.966.988 2.03 1.74 2.767 2.202l.453.274l.453-.274c.736-.462 1.801-1.214 2.767-2.201c1.284-1.313 2.28-2.924 2.28-4.741A5.5 5.5 0 0 0 12 4m0 2.5a3 3 0 1 1 0 6a3 3 0 0 1 0-6m0 2a1 1 0 1 0 0 2a1 1 0 0 0 0-2" />
	</g>
</svg>