<svg xmlns="http://www.w3.org/2000/svg" width="24" height="24" viewBox="0 0 24 24">
    <g fill="none">
        <path d="m12.594 23.258l-.012.002l-.071.035l-.02.004l-.014-.004l-.071-.036q-.016-.004-.024.006l-.004.01l-.017.428l.005.02l.01.013l.104.074l.015.004l.012-.004l.104-.074l.012-.016l.004-.017l-.017-.427q-.004-.016-.016-.018m.264-.113l-.014.002l-.184.093l-.01.01l-.003.011l.018.43l.005.012l.008.008l.201.092q.019.005.029-.008l.004-.014l-.034-.614q-.005-.019-.02-.022m-.715.002a.02.02 0 0 0-.027.006l-.006.014l-.034.614q.001.018.017.024l.015-.002l.201-.093l.01-.008l.003-.011l.018-.43l-.003-.012l-.01-.01z"/>
        <path fill="currentColor"
              d="M5 17a2 2 0 1 1 0 4a2 2 0 0 1 0-4M5 3c8.837 0 16 7.163 16 16q0 .277-.01.55a1.5 1.5 0 1 1-2.997-.1A13 13 0 0 0 18 19c0-7.18-5.82-13-13-13q-.225 0-.45.008a1.5 1.5 0 0 1-.1-2.999Q4.722 3 5 3m0 7a9 9 0 0 1 8.98 9.599a1.5 1.5 0 1 1-2.993-.198a6 6 0 0 0-6.388-6.388a1.5 1.5 0 0 1-.197-2.993Q4.699 10 5 10"/>
    </g>
</svg>